<?xml version="1.0" encoding="utf-8"?>
<!-- Generator: Adobe Illustrator 16.0.0, SVG Export Plug-In . SVG Version: 6.00 Build 0)  -->
<!DOCTYPE svg PUBLIC "-//W3C//DTD SVG 1.1//EN" "http://www.w3.org/Graphics/SVG/1.1/DTD/svg11.dtd">
<svg version="1.1" id="レイヤー_1" xmlns="http://www.w3.org/2000/svg" xmlns:xlink="http://www.w3.org/1999/xlink" x="0px"
	 y="0px" width="500px" height="500px" viewBox="0 0 500 500" enable-background="new 0 0 500 500" xml:space="preserve">
<rect fill="#CE0000" width="500" height="500"/>
<g>
	<path fill="#FFFFFF" d="M99.715,205.063c-2.518-2.033-5.711-3.656-9.577-4.872c-3.866-1.215-8.473-1.822-13.819-1.822
		c-3.8,0-7.611,0.452-11.433,1.359c-3.822,0.906-7.49,2.164-11.002,3.777c-3.513,1.614-6.805,3.525-9.875,5.734
		c-3.071,2.209-5.744,4.617-8.02,7.223c-2.276,2.607-4.065,5.37-5.369,8.286c-1.303,2.916-1.955,5.876-1.955,8.881
		c0,2.475,0.32,4.551,0.961,6.23c0.641,1.679,1.568,3.028,2.783,4.043c1.215,1.016,2.729,1.756,4.54,2.22
		c1.812,0.464,3.888,0.696,6.23,0.696c0-0.266-0.1-0.574-0.299-0.929c-0.198-0.353-0.408-0.85-0.629-1.49s-0.431-1.502-0.63-2.584
		c-0.199-1.084-0.298-2.487-0.298-4.209c0-5.169,0.873-9.787,2.618-13.853c1.745-4.064,4.231-7.523,7.456-10.373
		c3.226-2.85,7.081-5.026,11.566-6.528s9.489-2.253,15.012-2.253c2.651,0,4.916,0.388,6.794,1.161s3.414,1.812,4.606,3.115
		c1.193,1.303,2.077,2.816,2.651,4.539c0.575,1.724,0.862,3.536,0.862,5.436c0,2.607-0.476,5.302-1.425,8.085
		c-0.95,2.784-2.276,5.325-3.977,7.623c-1.702,2.298-3.734,4.442-6.098,5.945c-2.364,1.502-4.96,2.498-7.788,2.498h-1.061
		l6.628-31.594l-20.083,2.441L40.661,300h19.486l10.869-51.082c0.884-0.22,1.702-0.32,2.453-0.386
		c0.751-0.066,1.436-0.077,2.054-0.077c1.502,0,2.784,0.23,3.845,0.672c1.06,0.443,1.899,1.077,2.518,1.894s1.072,1.792,1.359,2.92
		c0.287,1.127,0.43,2.377,0.43,3.746c0,2.607-0.375,5.501-1.126,8.683c-0.751,3.182-1.579,6.396-2.486,9.645
		c-0.906,3.247-1.734,6.385-2.485,9.411c-0.751,3.028-1.127,5.689-1.127,7.987c0,1.06,0.144,2.131,0.431,3.215
		c0.288,1.082,0.817,2.054,1.591,2.916c0.773,0.862,1.845,1.569,3.214,2.12c1.369,0.554,3.159,0.829,5.368,0.829
		c1.635,0,3.558-0.176,5.767-0.53c2.209-0.353,4.772-0.949,7.688-1.789c-1.635-0.619-2.928-1.734-3.878-3.347
		c-0.949-1.613-1.425-3.48-1.425-5.603c0-2.164,0.343-4.639,1.028-7.422s1.447-5.699,2.286-8.75c0.839-3.049,1.602-6.13,2.287-9.245
		s1.027-6.087,1.027-8.914c0-1.592-0.154-3.104-0.464-4.541c-0.309-1.437-0.817-2.738-1.524-3.909
		c-0.707-1.171-1.668-2.188-2.883-3.049c-1.214-0.862-2.707-1.559-4.474-2.089c2.342-1.37,4.419-2.972,6.23-4.804
		c1.811-1.834,3.347-3.768,4.606-5.801c1.26-2.032,2.209-4.12,2.85-6.263c0.641-2.143,0.961-4.253,0.961-6.33
		c0-2.784-0.607-5.478-1.823-8.085C104.101,209.416,102.234,207.096,99.715,205.063z"/>
	<path fill="#FFFFFF" d="M195.886,221.865c0.972,0.949,2.11,1.701,3.414,2.253c1.304,0.553,2.707,0.829,4.209,0.829
		c1.502,0,2.905-0.276,4.208-0.829c1.304-0.552,2.453-1.304,3.447-2.253c0.994-0.951,1.778-2.077,2.353-3.38
		c0.575-1.304,0.862-2.707,0.862-4.209c0-1.502-0.287-2.905-0.862-4.209c-0.574-1.304-1.359-2.452-2.353-3.447
		c-0.994-0.993-2.143-1.778-3.447-2.352c-1.303-0.574-2.707-0.862-4.208-0.862c-1.502,0-2.905,0.288-4.209,0.862
		c-1.304,0.574-2.441,1.359-3.414,2.352c-0.972,0.995-1.734,2.143-2.286,3.447s-0.829,2.707-0.829,4.209
		c0,1.503,0.276,2.906,0.829,4.209C194.152,219.788,194.914,220.914,195.886,221.865z"/>
	<path fill="#FFFFFF" d="M467.1,287.845c-2.076,0-3.502-0.529-4.273-1.59c-0.773-1.061-1.161-2.431-1.161-4.109
		c0-1.281,0.166-2.773,0.498-4.474c0.331-1.701,0.729-3.546,1.191-5.535c0.465-1.987,0.984-4.064,1.559-6.229
		c0.572-2.164,1.094-4.341,1.559-6.529c0.462-2.187,0.86-4.329,1.191-6.429c0.332-2.098,0.498-4.054,0.498-5.865
		c0-2.695-0.376-5.016-1.128-6.959c-0.752-1.944-1.799-3.534-3.148-4.771c-1.349-1.237-2.938-2.143-4.771-2.719
		c-1.834-0.574-3.834-0.86-5.998-0.86c-1.237,0-2.609,0.132-4.11,0.398c-1.502,0.265-3.072,0.794-4.706,1.59
		c-1.634,0.795-3.314,1.956-5.036,3.479c-1.725,1.525-3.403,3.546-5.038,6.064c-0.354-2.12-0.951-3.921-1.789-5.401
		c-0.84-1.479-1.856-2.684-3.049-3.612c-1.193-0.928-2.563-1.602-4.109-2.021c-1.548-0.42-3.204-0.63-4.971-0.63
		c-1.193,0-2.453,0.1-3.778,0.298c-1.326,0.199-2.696,0.574-4.109,1.126c-1.415,0.553-2.85,1.326-4.309,2.321
		c-1.457,0.993-2.916,2.157-4.374,3.791l1.458-7.177h-19.553l-9.25,43.804c-0.522,1.683-1.128,3.325-1.817,4.774
		c-0.707,1.48-1.515,2.789-2.421,3.85c-0.905,1.06-1.921,1.908-3.049,2.505c-1.125,0.597-2.352,0.902-3.677,0.902
		c-1.9,0-3.305-0.358-4.209-1.088c-0.906-0.729-1.359-2.04-1.359-3.94c0-0.707,0.044-1.425,0.133-2.153s0.242-1.469,0.464-2.221
		l15.575-73.304l-20.243,2.718L349,239.065v-0.531c0-1.944-0.713-3.579-2.457-4.905c-1.748-1.325-4.459-1.988-8.304-1.988
		c-3.934,0-7.493,0.74-10.763,2.22c-3.271,1.479-6.178,3.469-8.763,5.965c-2.584,2.497-4.828,5.369-6.75,8.617
		c-1.921,3.247-3.519,6.639-4.801,10.173c-1.282,3.535-2.227,7.07-2.848,10.604c-0.497,2.844-0.782,5.538-0.88,8.097
		c-0.813,0.651-1.675,1.3-2.598,1.944c-1.613,1.128-3.411,2.266-5.4,3.414c0.22-0.751,0.364-1.546,0.431-2.386s0.1-1.768,0.1-2.783
		c0-1.503-0.033-2.949-0.1-4.342s-0.178-2.939-0.331-4.641c-0.154-1.7-0.32-3.656-0.498-5.865c-0.176-2.209-0.375-4.894-0.597-8.052
		c-0.22-3.161-0.452-6.894-0.696-11.202c-0.241-4.309-0.495-9.401-0.761-15.277l-20.083,2.651c-2.12,6.717-4.484,13.399-7.092,20.05
		c-2.605,6.648-5.81,13.376-9.61,20.182c-0.929,0.442-1.824,1.05-2.685,1.822c-0.861,0.773-1.623,1.691-2.287,2.751
		c-0.662,1.061-1.204,2.265-1.624,3.612c-0.419,1.347-0.629,2.816-0.629,4.407c0,0.092,0.011,0.185,0.013,0.276
		c-0.179,0.199-0.357,0.399-0.543,0.586c-1.06,1.06-2.221,1.889-3.479,2.485c-1.259,0.597-2.552,0.894-3.877,0.894
		c-1.9,0-3.292-0.363-4.176-1.093c-0.884-0.729-1.326-2.043-1.326-3.943c0-0.707,0.033-1.426,0.1-2.154
		c0.066-0.729,0.209-1.469,0.431-2.221l15.577-73.304l-20.084,2.717l-14.515,68.002c-0.53,1.725-1.215,3.324-2.054,4.806
		c-0.84,1.48-1.79,2.751-2.851,3.812c-1.06,1.06-2.22,1.889-3.479,2.485c-1.259,0.597-2.552,0.894-3.877,0.894
		c-1.9,0-3.292-0.363-4.176-1.093c-0.883-0.729-1.326-2.043-1.326-3.943c0-0.707,0.033-1.426,0.1-2.154
		c0.066-0.729,0.21-1.621,0.431-2.373L209.606,232h-19.552l-9.212,43.696c-0.486,1.725-1.083,3.446-1.79,5.015
		c-0.708,1.569-1.524,2.965-2.453,4.113c-0.927,1.15-1.955,2.086-3.082,2.771c-1.126,0.685-2.353,1.035-3.679,1.035
		c-3.711,0-5.567-1.939-5.567-5.827c0-0.707,0.044-1.423,0.133-2.151c0.088-0.729,0.243-1.62,0.463-2.372L174.61,232h-19.552
		L154,239.527v-0.993c0-1.944-1.073-3.579-2.818-4.905c-1.745-1.325-4.64-1.988-8.484-1.988c-3.933,0-7.583,0.74-10.853,2.22
		c-3.271,1.479-6.222,3.469-8.808,5.965c-2.584,2.497-4.851,5.369-6.773,8.617c-1.921,3.247-3.53,6.639-4.812,10.173
		c-1.281,3.535-2.234,7.07-2.853,10.604c-0.619,3.535-0.929,6.85-0.929,9.942c0,4.021,0.507,7.423,1.524,10.207
		c1.016,2.783,2.363,5.036,4.042,6.761c1.679,1.723,3.601,2.959,5.767,3.712c2.165,0.75,4.418,1.125,6.76,1.125
		c2.431,0,4.65-0.363,6.661-1.092c2.01-0.729,3.833-1.68,5.468-2.851s3.115-2.497,4.44-3.977c1.325-1.48,2.541-2.995,3.646-4.541
		c0.486,4.109,1.867,7.214,4.143,9.312c2.274,2.099,5.334,3.147,9.179,3.147c1.193,0,2.518-0.109,3.976-0.33s2.983-0.642,4.574-1.26
		c1.59-0.619,3.225-1.502,4.904-2.65c1.679-1.15,3.325-2.651,4.938-4.508c0.826-0.949,1.636-2.013,2.433-3.183
		c0.187,1.1,0.44,2.124,0.782,3.05c0.75,2.033,1.778,3.712,3.082,5.038c1.303,1.325,2.838,2.297,4.606,2.916
		c1.767,0.618,3.667,0.927,5.7,0.927c1.193,0,2.552-0.109,4.076-0.33c1.524-0.221,3.126-0.642,4.805-1.26
		c1.679-0.619,3.414-1.502,5.203-2.65c1.79-1.15,3.535-2.651,5.236-4.508c0.926-1.01,1.831-2.155,2.717-3.415
		c0.188,1.193,0.461,2.289,0.829,3.282c0.751,2.033,1.778,3.712,3.082,5.038c1.303,1.325,2.839,2.297,4.607,2.916
		c1.767,0.618,3.667,0.927,5.7,0.927c1.193,0,2.551-0.109,4.076-0.33c1.524-0.221,3.126-0.642,4.805-1.26
		c1.679-0.619,3.413-1.502,5.203-2.65c1.79-1.15,3.536-2.651,5.236-4.508c0.296-0.322,0.587-0.675,0.878-1.022
		c0.748,1.507,1.744,2.899,2.999,4.171c1.635,1.657,3.7,3.005,6.197,4.043s5.444,1.557,8.848,1.557c1.724,0,3.546-0.143,5.468-0.429
		c1.923-0.288,3.823-0.753,5.701-1.393c1.877-0.641,3.688-1.48,5.434-2.519c1.747-1.038,3.326-2.309,4.74-3.812
		c3.18-1.855,6.55-4.12,10.107-6.794c1.118-0.84,2.234-1.76,3.35-2.742c0.235,2.281,0.674,4.312,1.322,6.09
		c1.018,2.783,2.363,5.036,4.043,6.761c1.68,1.723,3.601,2.959,5.767,3.712c2.164,0.75,4.417,1.125,6.761,1.125
		c2.386,0,4.595-0.363,6.628-1.092c2.031-0.729,3.877-1.68,5.533-2.851c1.658-1.171,3.138-2.497,4.441-3.977
		c1.302-1.48,2.463-2.995,3.479-4.541c0.531,3.845,1.944,6.75,4.243,8.717c2.295,1.965,5.324,2.949,9.079,2.949
		c1.192,0,2.519-0.089,3.978-0.266c1.457-0.176,2.982-0.553,4.572-1.127c1.592-0.574,3.225-1.403,4.905-2.485
		c1.552-1,3.072-2.403,4.568-4.009L371.261,300h19.553l9.213-43.459c0.53-1.723,1.147-3.314,1.854-4.861s1.515-2.872,2.421-4.021
		c0.904-1.148,1.921-2.045,3.049-2.707c1.125-0.663,2.353-0.989,3.679-0.989c0.794,0,1.446,0.168,1.954,0.5
		c0.507,0.332,0.929,0.774,1.26,1.326c0.332,0.553,0.562,1.184,0.695,1.891c0.132,0.707,0.198,1.458,0.198,2.253
		c0,1.194-0.133,2.233-0.397,3.294L404.797,300h19.553l9.214-43.459c0.53-1.723,1.148-3.303,1.855-4.828
		c0.705-1.524,1.501-2.829,2.386-3.954c0.885-1.128,1.856-2.012,2.916-2.673c1.061-0.663,2.209-0.989,3.446-0.989
		c3.271,0,4.905,2.322,4.905,6.961c0,2.164-0.32,4.753-0.961,7.756c-0.641,3.005-1.337,6.12-2.088,9.347
		c-0.752,3.226-1.448,6.374-2.088,9.445c-0.641,3.07-0.961,5.756-0.961,8.053c0,1.944,0.221,3.834,0.662,5.666
		c0.441,1.834,1.193,3.47,2.255,4.906c1.061,1.436,2.462,2.584,4.207,3.446c1.747,0.862,3.922,1.291,6.528,1.291
		c1.813,0,3.547-0.264,5.204-0.794c1.656-0.53,3.159-1.37,4.508-2.52c1.347-1.148,2.485-2.596,3.412-4.341
		c0.928-1.745,1.548-3.854,1.856-6.329C470.768,287.559,469.264,287.845,467.1,287.845z M145.845,275.849
		c-0.441,1.989-1.093,3.734-1.955,5.237c-0.861,1.501-1.812,2.75-2.85,3.743c-1.038,0.995-2.121,1.747-3.248,2.255
		s-2.198,0.761-3.214,0.761c-0.619,0-1.326-0.064-2.121-0.197c-0.795-0.133-1.535-0.543-2.22-1.227
		c-0.685-0.686-1.271-1.735-1.756-3.148c-0.486-1.414-0.729-3.424-0.729-6.031c0-2.122,0.199-4.519,0.597-7.191
		c0.398-2.674,0.983-5.391,1.757-8.153c0.773-2.761,1.712-5.445,2.816-8.052c1.105-2.607,2.364-4.939,3.778-6.993
		c1.414-2.054,2.971-3.7,4.672-4.937c1.701-1.237,3.502-1.856,5.402-1.856c1.104,0,2.01,0.188,2.717,0.563
		c0.707,0.375,1.271,0.839,1.69,1.393c0.419,0.552,0.718,1.126,0.895,1.723c0.177,0.597,0.265,1.094,0.265,1.492L145.845,275.849z
		 M275.288,283.604c-0.663,1.591-1.546,2.884-2.65,3.878c-1.105,0.993-2.365,1.7-3.778,2.12c-1.414,0.419-2.873,0.631-4.374,0.631
		c-3.005,0-5.137-0.785-6.396-2.354c-1.011-1.258-1.609-3.046-1.809-5.344c0.155-0.319,0.311-0.642,0.464-0.972
		c0.277,0.3,0.601,0.523,0.979,0.649c0.664,0.221,1.369,0.331,2.121,0.331c0.927,0,1.756-0.187,2.485-0.563
		c0.729-0.375,1.358-0.883,1.89-1.523c0.53-0.641,0.928-1.359,1.193-2.155c0.264-0.794,0.396-1.612,0.396-2.452
		c0-1.148-0.297-2.098-0.894-2.85c-0.597-0.751-1.339-1.37-2.222-1.855c2.255-4.375,4.309-8.638,6.164-12.792
		c1.856-4.153,3.469-8.439,4.839-12.857c0.264,3.49,0.508,6.539,0.728,9.146c0.222,2.606,0.432,4.903,0.63,6.893
		c0.199,1.988,0.377,3.733,0.531,5.235c0.155,1.503,0.277,2.86,0.364,4.077c0.088,1.215,0.166,2.362,0.232,3.446
		c0.066,1.082,0.1,2.197,0.1,3.347C276.283,280.024,275.951,282.013,275.288,283.604z M341,275.849v0.729
		c0,1.9-0.877,3.557-1.737,4.971c-0.862,1.415-1.704,2.586-2.743,3.513c-1.037,0.928-2.065,1.624-3.192,2.089
		c-1.126,0.464-2.127,0.694-3.055,0.694c-0.619,0-1.312-0.064-2.106-0.197c-0.796-0.133-1.529-0.543-2.214-1.227
		c-0.686-0.686-1.267-1.735-1.753-3.148c-0.486-1.414-0.729-3.424-0.729-6.031c0-2.122,0.2-4.519,0.598-7.191
		c0.398-2.674,0.985-5.391,1.759-8.153c0.771-2.761,1.712-5.445,2.816-8.052c1.103-2.607,2.363-4.939,3.778-6.993
		c1.413-2.054,2.97-3.7,4.672-4.937c1.699-1.237,3.502-1.856,5.402-1.856c1.06,0,1.932,0.166,2.618,0.497
		c0.684,0.332,1.225,0.75,1.623,1.26c0.397,0.508,0.696,1.026,0.895,1.557c0.199,0.53,0.123,0.995,0.214,1.393L341,275.849z"/>
</g>
</svg>
