<?xml version="1.0" encoding="utf-8"?>
<!-- Generator: Adobe Illustrator 16.0.0, SVG Export Plug-In . SVG Version: 6.00 Build 0)  -->
<!DOCTYPE svg PUBLIC "-//W3C//DTD SVG 1.1//EN" "http://www.w3.org/Graphics/SVG/1.1/DTD/svg11.dtd">
<svg version="1.1" id="レイヤー_1" xmlns="http://www.w3.org/2000/svg" xmlns:xlink="http://www.w3.org/1999/xlink" x="0px"
	 y="0px" width="850px" height="120px" viewBox="0 0 850 120" enable-background="new 0 0 850 120" xml:space="preserve">
<g>
	<path d="M58.297,26.143c-1.63-1.316-3.697-2.367-6.2-3.154c-2.504-0.787-5.486-1.18-8.946-1.18c-2.461,0-4.928,0.293-7.401,0.879
		c-2.474,0.587-4.849,1.402-7.123,2.446c-2.274,1.044-4.405,2.281-6.393,3.711c-1.989,1.431-3.719,2.989-5.192,4.677
		c-1.474,1.688-2.632,3.476-3.476,5.363c-0.844,1.888-1.266,3.805-1.266,5.75c0,1.602,0.207,2.946,0.622,4.033
		c0.415,1.087,1.015,1.959,1.802,2.617c0.787,0.658,1.766,1.137,2.939,1.437c1.173,0.301,2.517,0.451,4.033,0.451
		c0-0.172-0.064-0.372-0.193-0.601c-0.128-0.229-0.265-0.551-0.407-0.965c-0.144-0.414-0.279-0.972-0.408-1.674
		c-0.129-0.701-0.193-1.608-0.193-2.724c0-3.347,0.564-6.335,1.695-8.967c1.13-2.632,2.739-4.87,4.827-6.715
		c2.088-1.845,4.584-3.253,7.488-4.226c2.903-0.972,6.142-1.459,9.718-1.459c1.716,0,3.182,0.251,4.398,0.751
		c1.215,0.5,2.209,1.173,2.982,2.017c0.772,0.844,1.345,1.824,1.716,2.939c0.371,1.116,0.558,2.289,0.558,3.519
		c0,1.688-0.307,3.433-0.922,5.234c-0.615,1.802-1.474,3.448-2.575,4.935c-1.101,1.487-2.417,2.525-3.947,3.498
		C44.903,49.706,43.222,50,41.392,50h-0.687l4.291-20.103l-13.001,1.955L20.067,88h12.615l7.037-33.268
		c0.572-0.143,1.101-0.308,1.587-0.351s0.929-0.1,1.331-0.1c0.972,0,1.802,0.126,2.488,0.412c0.687,0.286,1.229,0.685,1.63,1.214
		c0.4,0.529,0.693,1.154,0.88,1.883c0.186,0.729,0.279,1.537,0.279,2.423c0,1.688-0.243,3.56-0.729,5.619
		c-0.487,2.06-1.023,4.14-1.609,6.243c-0.586,2.102-1.123,4.133-1.608,6.092c-0.487,1.958-0.729,3.683-0.729,5.17
		c0,0.688,0.092,1.38,0.279,2.08c0.186,0.702,0.529,1.331,1.029,1.888c0.5,0.559,1.194,1.016,2.081,1.374
		c0.886,0.357,2.045,0.536,3.476,0.536c1.058,0,2.302-0.113,3.733-0.343c1.43-0.229,3.089-0.615,4.977-1.158
		c-1.059-0.401-1.895-1.123-2.51-2.167c-0.615-1.045-0.923-2.253-0.923-3.626c0-1.401,0.222-3.004,0.666-4.806
		c0.443-1.802,0.937-3.689,1.48-5.663c0.542-1.975,1.036-3.97,1.48-5.985c0.443-2.018,0.665-3.94,0.665-5.771
		c0-1.03-0.101-2.009-0.3-2.939c-0.2-0.929-0.53-1.773-0.987-2.531c-0.458-0.757-1.08-1.416-1.867-1.974
		c-0.787-0.558-1.752-1.008-2.896-1.352c1.516-0.886,2.86-1.924,4.033-3.111c1.173-1.187,2.167-2.438,2.982-3.754
		c0.815-1.315,1.431-2.667,1.845-4.054c0.415-1.388,0.623-2.753,0.623-4.098c0-1.803-0.394-3.547-1.18-5.235
		C61.136,28.96,59.928,27.458,58.297,26.143z"/>
	<path d="M120.555,37.019c0.629,0.616,1.366,1.101,2.209,1.459c0.844,0.358,1.752,0.536,2.725,0.536c0.972,0,1.88-0.178,2.725-0.536
		c0.843-0.358,1.587-0.843,2.231-1.459c0.643-0.615,1.151-1.345,1.523-2.188c0.371-0.844,0.558-1.752,0.558-2.725
		c0-0.972-0.187-1.881-0.558-2.725c-0.373-0.843-0.88-1.588-1.523-2.231c-0.644-0.644-1.388-1.151-2.231-1.523
		c-0.844-0.372-1.752-0.558-2.725-0.558c-0.973,0-1.881,0.187-2.725,0.558c-0.843,0.372-1.581,0.879-2.209,1.523
		c-0.629,0.644-1.123,1.388-1.48,2.231c-0.358,0.844-0.536,1.752-0.536,2.725c0,0.973,0.178,1.881,0.536,2.725
		C119.432,35.674,119.926,36.404,120.555,37.019z"/>
	<path d="M188.499,74.192c-1.045,0.73-2.21,1.458-3.497,2.202c0.143-0.486,0.236-1.006,0.279-1.549
		c0.042-0.544,0.064-1.147,0.064-1.804c0-0.974-0.022-1.91-0.064-2.812c-0.043-0.899-0.115-1.901-0.215-3.003
		c-0.101-1.102-0.208-2.368-0.321-3.798c-0.115-1.431-0.244-3.168-0.387-5.214c-0.143-2.044-0.293-4.462-0.45-7.251
		c-0.158-2.789-0.322-6.085-0.494-9.89l-13,1.716c-1.374,4.348-2.903,8.674-4.591,12.979c-1.688,4.306-3.762,8.661-6.222,13.066
		c-0.601,0.285-1.18,0.68-1.738,1.18c-0.558,0.5-1.051,1.094-1.479,1.78c-0.429,0.688-0.779,1.466-1.051,2.339
		c-0.272,0.873-0.408,1.823-0.408,2.853c0,0.051,0.006,0.101,0.007,0.151c-0.119,0.132-0.227,0.283-0.351,0.406
		c-0.687,0.687-1.437,1.224-2.252,1.609c-0.815,0.387-1.652,0.579-2.51,0.579c-1.23,0-2.131-0.235-2.703-0.707
		c-0.573-0.474-0.858-1.324-0.858-2.554c0-0.457,0.021-0.923,0.064-1.395s0.135-0.951,0.279-1.438l10.083-47.455l-13.001,1.759
		l-9.396,44.022c-0.343,1.115-0.787,2.152-1.33,3.11c-0.543,0.959-1.158,1.781-1.845,2.467c-0.687,0.687-1.438,1.224-2.253,1.609
		c-0.815,0.387-1.652,0.579-2.51,0.579c-1.23,0-2.131-0.235-2.704-0.707c-0.572-0.474-0.857-1.324-0.857-2.554
		c0-0.457,0.021-0.923,0.064-1.395s0.136-0.84,0.279-1.326L129.437,44h-12.658l-5.964,28.078c-0.315,1.115-0.701,2.126-1.158,3.142
		c-0.458,1.015-0.987,1.867-1.588,2.61c-0.601,0.745-1.266,1.323-1.995,1.766c-0.729,0.444-1.523,0.659-2.382,0.659
		c-2.402,0-3.604-1.262-3.604-3.779c0-0.457,0.029-0.925,0.086-1.396c0.058-0.472,0.157-0.841,0.301-1.327L106.782,44H94.125
		L93,48.454V47.81c0-1.258-0.475-2.317-1.604-3.175c-1.13-0.858-2.895-1.288-5.383-1.288c-2.546,0-4.854,0.479-6.971,1.438
		c-2.117,0.959-4.001,2.246-5.674,3.862c-1.673,1.616-3.126,3.475-4.371,5.578c-1.244,2.102-2.278,4.298-3.108,6.586
		c-0.83,2.29-1.442,4.577-1.843,6.865c-0.4,2.289-0.6,4.435-0.6,6.437c0,2.603,0.329,4.805,0.987,6.607
		c0.658,1.802,1.53,3.261,2.618,4.377c1.086,1.115,2.331,1.916,3.732,2.402c1.401,0.486,2.86,0.729,4.376,0.729
		c1.573,0,3.01-0.236,4.312-0.708c1.301-0.473,2.481-1.087,3.54-1.846c1.058-0.757,2.017-1.615,2.875-2.574
		c0.858-0.957,1.645-1.938,2.36-2.939c0.314,2.661,1.208,4.671,2.682,6.028c1.473,1.36,3.454,2.039,5.942,2.039
		c0.772,0,1.63-0.072,2.575-0.215c0.944-0.144,1.931-0.415,2.96-0.814c1.029-0.401,2.088-0.974,3.175-1.717s2.152-1.717,3.197-2.918
		c0.534-0.614,1.059-1.303,1.574-2.06c0.121,0.712,0.285,1.375,0.506,1.975c0.487,1.315,1.151,2.401,1.996,3.26
		c0.843,0.858,1.838,1.488,2.982,1.889c1.144,0.399,2.374,0.601,3.69,0.601c0.772,0,1.652-0.072,2.639-0.215
		c0.987-0.144,2.023-0.415,3.11-0.814c1.087-0.401,2.209-0.974,3.369-1.717c1.158-0.743,2.288-1.717,3.389-2.918
		c0.599-0.653,1.185-1.396,1.759-2.21c0.122,0.772,0.299,1.482,0.537,2.125c0.486,1.315,1.151,2.401,1.995,3.26
		c0.844,0.858,1.838,1.488,2.982,1.889c1.144,0.399,2.375,0.601,3.69,0.601c0.772,0,1.651-0.072,2.639-0.215
		c0.987-0.144,2.023-0.415,3.11-0.814c1.087-0.401,2.21-0.974,3.369-1.717s2.288-1.717,3.39-2.918
		c0.191-0.209,0.38-0.437,0.568-0.662c0.484,0.976,1.129,1.877,1.941,2.701c1.058,1.071,2.396,1.945,4.012,2.616
		c1.616,0.673,3.525,1.009,5.728,1.009c1.116,0,2.296-0.094,3.54-0.278c1.244-0.188,2.474-0.486,3.69-0.902
		c1.216-0.414,2.388-0.958,3.518-1.631c1.13-0.671,2.152-1.493,3.068-2.467c2.06-1.2,4.241-2.649,6.543-4.382
		c2.302-1.729,4.598-3.568,6.887-6.568h-3.69C190.479,73,189.542,73.464,188.499,74.192z M88.161,71.967
		c-0.286,1.287-0.708,2.417-1.266,3.39c-0.558,0.973-1.173,1.781-1.845,2.424c-0.672,0.645-1.373,1.13-2.103,1.458
		c-0.729,0.33-1.423,0.494-2.081,0.494c-0.401,0-0.858-0.042-1.373-0.129c-0.515-0.085-0.994-0.35-1.438-0.793
		s-0.822-1.122-1.137-2.038c-0.315-0.915-0.472-2.218-0.472-3.904c0-1.373,0.129-2.925,0.386-4.655
		c0.257-1.731,0.637-3.49,1.137-5.278c0.5-1.787,1.109-3.525,1.824-5.213c0.715-1.688,1.53-3.196,2.446-4.526
		c0.916-1.331,1.924-2.396,3.025-3.197c1.1-0.801,2.267-1.202,3.497-1.202c0.715,0,1.302,0.122,1.759,0.365
		c0.457,0.243,0.822,0.543,1.094,0.901s0.465,0.729,0.58,1.116c0.114,0.386,0.171,0.708,0.171,0.965L88.161,71.967z M171.958,76.986
		c-0.429,1.03-1.001,1.867-1.716,2.511s-1.53,1.102-2.446,1.372c-0.916,0.272-1.859,0.408-2.832,0.408
		c-1.946,0-3.325-0.507-4.141-1.523c-0.655-0.815-1.034-1.984-1.163-3.476c0.098-0.201,0.196-0.404,0.293-0.612
		c0.18,0.193,0.389,0.338,0.634,0.42c0.429,0.144,0.886,0.214,1.373,0.214c0.601,0,1.137-0.121,1.609-0.364
		c0.472-0.242,0.88-0.571,1.223-0.987c0.343-0.414,0.601-0.879,0.772-1.394s0.257-1.044,0.257-1.588
		c0-0.744-0.193-1.358-0.579-1.845c-0.386-0.487-0.865-0.887-1.438-1.202c1.459-2.831,2.789-5.592,3.99-8.281
		c1.202-2.688,2.246-5.463,3.132-8.324c0.172,2.259,0.329,4.233,0.472,5.921c0.143,1.688,0.279,3.175,0.408,4.463
		c0.128,1.287,0.243,2.416,0.343,3.39c0.1,0.973,0.178,1.852,0.235,2.639c0.058,0.787,0.108,1.529,0.15,2.231
		c0.043,0.701,0.064,1.423,0.064,2.166C172.601,74.67,172.386,75.957,171.958,76.986z"/>
	<path d="M264.744,34.573c-0.787-1.873-1.802-3.589-3.046-5.149c-1.244-1.559-2.739-2.902-4.484-4.033
		c-1.745-1.13-3.748-2.009-6.007-2.639c-2.26-0.628-4.806-0.944-7.638-0.944c-2.975,0-5.85,0.293-8.625,0.879
		c-2.774,0.587-5.37,1.409-7.787,2.467c-2.417,1.058-4.627,2.311-6.629,3.754c-2.002,1.445-3.719,3.025-5.149,4.741
		c-1.431,1.716-2.539,3.54-3.325,5.471c-0.787,1.931-1.18,3.897-1.18,5.899c0,2.976,0.83,5.078,2.489,6.307
		c1.659,1.23,3.961,1.845,6.908,1.845c0-0.172-0.065-0.372-0.194-0.601c-0.128-0.229-0.265-0.551-0.407-0.965
		c-0.144-0.414-0.279-0.972-0.408-1.674c-0.128-0.701-0.193-1.608-0.193-2.724c0-3.347,0.586-6.335,1.759-8.967
		c1.172-2.632,2.789-4.87,4.848-6.715c2.06-1.845,4.491-3.253,7.294-4.226c2.803-0.972,5.835-1.459,9.096-1.459
		c1.916,0,3.662,0.308,5.235,0.923c1.573,0.615,2.924,1.587,4.054,2.917c1.13,1.33,2.002,3.046,2.618,5.149
		c0.615,2.102,0.922,4.641,0.922,7.616c0,2.976-0.171,5.985-0.515,9.032c-0.343,3.046-0.851,6.007-1.523,8.882
		c-0.672,2.876-1.495,5.571-2.467,8.089c-0.972,2.517-2.081,4.712-3.325,6.585c-1.244,1.875-2.625,3.354-4.14,4.441
		c-1.517,1.087-3.147,1.631-4.892,1.631c-1.745,0-3.418-0.587-5.021-1.76l10.555-49.257l-13.001,1.859L218.64,88h12.615l0.729-3.662
		c1.888,1.631,3.718,2.746,5.492,3.49c1.774,0.743,3.519,1.08,5.235,1.08c2.173,0,4.283-0.584,6.329-1.713
		c2.045-1.131,3.969-2.691,5.771-4.665c1.802-1.973,3.454-4.302,4.956-6.977c1.502-2.673,2.789-5.56,3.862-8.647
		c1.072-3.09,1.909-6.323,2.51-9.698c0.601-3.375,0.901-6.737,0.901-10.084c0-2.231-0.187-4.412-0.558-6.543
		C266.109,38.45,265.53,36.447,264.744,34.573z"/>
	<path d="M336.205,44.377c-0.429-0.714-0.994-1.287-1.695-1.716s-1.581-0.644-2.639-0.644c-1.888,0-3.268,0.451-4.14,1.352
		c-0.873,0.901-1.309,2.039-1.309,3.411c0,0.515,0.064,1.037,0.193,1.566c0.128,0.53,0.329,1.009,0.601,1.438
		c0.272,0.429,0.607,0.779,1.008,1.051c0.4,0.272,0.858,0.408,1.373,0.408c0.171,0,0.401-0.015,0.687-0.043
		c0.286-0.028,0.572-0.079,0.858-0.15c0.285-0.071,0.55-0.165,0.793-0.279c0.243-0.114,0.393-0.243,0.451-0.386
		c0,1.602-0.179,3.439-0.537,5.514c-0.358,2.074-0.858,4.198-1.501,6.371c-0.644,2.175-1.423,4.306-2.338,6.394
		c-0.916,2.088-1.931,3.954-3.046,5.599c-1.116,1.646-2.332,2.969-3.647,3.969c-1.316,1.003-2.688,1.502-4.119,1.502
		c-1.058,0-1.823-0.265-2.295-0.793c-0.472-0.53-0.708-1.238-0.708-2.125c0-0.399,0.043-0.864,0.129-1.394
		c0.085-0.53,0.199-1.012,0.343-1.67L320.973,44h-12.658l-5.954,28h-0.01c-1.116,1-2.225,2.371-3.325,3.458
		c-1.102,1.088-2.268,2.022-3.497,2.825c-1.23,0.799-2.553,1.425-3.969,1.882c-1.416,0.458-2.997,0.685-4.741,0.685
		c-1.058,0-1.98-0.106-2.767-0.322c-0.787-0.214-1.445-0.594-1.974-1.137c-0.53-0.544-0.93-1.295-1.202-2.253
		c-0.272-0.959-0.407-2.182-0.407-3.67c0-0.515,0.021-1.065,0.064-1.65c0.043-0.587,0.092-1.209,0.15-1.867
		c2.631-0.172,5.163-0.757,7.594-1.76c2.431-1.001,4.584-2.316,6.458-3.947c1.873-1.63,3.368-3.539,4.484-5.728
		c1.116-2.188,1.673-4.555,1.673-7.101c0-1.087-0.136-2.138-0.408-3.153c-0.272-1.015-0.772-1.91-1.502-2.682
		c-0.729-0.772-1.716-1.395-2.96-1.867c-1.244-0.472-2.853-0.708-4.827-0.708c-3.003,0-5.678,0.536-8.023,1.609
		c-2.346,1.073-4.392,2.488-6.136,4.248c-1.745,1.759-3.233,3.754-4.462,5.986c-1.23,2.231-2.217,4.505-2.96,6.822
		c-0.745,2.317-1.288,4.577-1.631,6.78c-0.343,2.202-0.515,4.146-0.515,5.835c0,2.488,0.322,4.611,0.965,6.371
		c0.644,1.759,1.566,3.197,2.768,4.312c1.201,1.115,2.646,1.938,4.333,2.467c1.688,0.528,3.576,0.794,5.664,0.794
		c2.889,0,5.542-0.466,7.959-1.394c2.417-0.931,4.619-2.154,6.607-3.669c1.988-1.517,3.776-3.246,5.363-5.192
		c0.159-0.194,0.308-0.393,0.463-0.589c-0.005,0.172-0.013,0.355-0.013,0.503c0,3.49,0.965,6.086,2.896,7.787
		c1.931,1.703,4.555,2.554,7.874,2.554c2.975,0,5.664-0.63,8.066-1.888c2.403-1.259,4.533-2.925,6.393-4.999
		c1.859-2.074,3.454-4.447,4.784-7.122c1.33-2.676,2.431-5.442,3.304-8.303c0.872-2.86,1.508-5.7,1.909-8.517
		c0.401-2.817,0.601-5.399,0.601-7.745c0-0.972-0.093-1.916-0.279-2.832C336.941,45.908,336.634,45.093,336.205,44.377z
		 M283.108,59.245c0.729-2.16,1.566-4.098,2.51-5.814c0.944-1.716,1.953-3.11,3.025-4.183c1.073-1.073,2.167-1.609,3.283-1.609
		c0.829,0,1.401,0.329,1.716,0.987c0.315,0.659,0.472,1.531,0.472,2.618c0,1.831-0.35,3.597-1.051,5.299
		c-0.702,1.702-1.638,3.218-2.811,4.548c-1.173,1.329-2.531,2.409-4.076,3.239c-1.545,0.831-3.147,1.302-4.806,1.416
		C281.799,63.571,282.378,61.404,283.108,59.245z"/>
	<path d="M470.31,46.373c-0.959-1.073-2.096-1.845-3.411-2.317c-1.316-0.472-2.718-0.708-4.205-0.708
		c-2.231,0-4.176,0.358-5.836,1.073c-1.658,0.715-3.131,1.858-4.418,2.945L453.854,41h-12.656l-3.185,14.766
		c-0.04,0.017-0.078-0.084-0.118-0.068c-1.202,0.487-2.397,0.716-3.584,1.016c-1.188,0.301-2.296,0.287-3.326,0.287
		c-0.229,0-0.405,0-0.535,0c-0.128,0-0.45,0.179-0.45,0.121v-0.086c0-9.354-3.74-14.031-11.264-14.031
		c-3.003,0-5.668,0.536-8.013,1.609c-2.346,1.073-4.408,2.482-6.195,4.226c-1.788,1.745-3.3,3.727-4.545,5.943
		c-1.244,2.216-2.258,4.483-3.045,6.8c-0.787,2.317-1.357,4.57-1.715,6.758c-0.357,2.188-0.536,4.142-0.536,5.856
		c0,0.228,0.019,0.437,0.024,0.658c-0.039,0.071-0.069,0.15-0.11,0.222c-0.543,0.959-1.158,1.781-1.845,2.467
		c-0.687,0.687-1.438,1.224-2.252,1.609c-0.815,0.387-1.652,0.579-2.51,0.579c-1.23,0-2.131-0.235-2.703-0.707
		c-0.572-0.474-0.858-1.324-0.858-2.554c0-0.457,0.021-0.923,0.064-1.395c0.043-0.472,0.136-0.951,0.279-1.438l10.083-47.455
		l-13.001,1.759l-9.396,44.022c-1.116,1.23-2.225,2.388-3.325,3.475c-1.102,1.088-2.268,2.031-3.497,2.833
		c-1.229,0.8-2.553,1.43-3.968,1.887c-1.417,0.458-2.998,0.687-4.742,0.687c-1.059,0-1.98-0.105-2.767-0.321
		c-0.787-0.214-1.445-0.594-1.974-1.137c-0.53-0.544-0.929-1.294-1.201-2.252c-0.272-0.959-0.408-2.182-0.408-3.67
		c0-0.515,0.021-1.065,0.064-1.65c0.043-0.587,0.093-1.209,0.15-1.867c2.632-0.172,5.163-0.757,7.595-1.76
		c2.431-1.001,4.583-2.316,6.458-3.947c1.873-1.63,3.368-3.539,4.483-5.728c1.116-2.188,1.673-4.555,1.673-7.101
		c0-1.087-0.135-2.138-0.407-3.153c-0.272-1.015-0.772-1.91-1.502-2.682c-0.729-0.772-1.716-1.395-2.96-1.867
		c-1.245-0.472-2.854-0.708-4.827-0.708c-3.003,0-5.678,0.536-8.023,1.609c-2.346,1.073-4.391,2.488-6.135,4.248
		c-1.745,1.759-3.233,3.754-4.462,5.986c-1.23,2.231-2.217,4.505-2.961,6.822c-0.744,2.317-1.287,4.577-1.63,6.78
		c-0.343,2.202-0.515,4.146-0.515,5.835c0,2.488,0.322,4.611,0.965,6.371c0.644,1.759,1.566,3.197,2.768,4.312
		c1.202,1.115,2.646,1.938,4.333,2.467c1.688,0.528,3.576,0.794,5.664,0.794c2.889,0,5.542-0.466,7.959-1.394
		c2.417-0.931,4.619-2.154,6.608-3.669c1.988-1.517,3.776-3.246,5.363-5.192c0.189-0.231,0.367-0.467,0.551-0.7
		c-0.003,0.146-0.015,0.302-0.015,0.442c0,1.86,0.243,3.447,0.729,4.764c0.486,1.315,1.151,2.401,1.995,3.26
		s1.838,1.488,2.982,1.889c1.144,0.399,2.374,0.601,3.69,0.601c0.772,0,1.652-0.072,2.639-0.215c0.987-0.144,2.023-0.415,3.11-0.814
		c1.087-0.401,2.21-0.974,3.369-1.717c1.158-0.743,2.288-1.717,3.389-2.918c0.65-0.709,1.284-1.525,1.904-2.424
		c0.055,0.154,0.097,0.322,0.156,0.472c0.701,1.76,1.673,3.189,2.917,4.291c1.244,1.102,2.731,1.902,4.462,2.401
		c1.731,0.501,3.611,0.753,5.643,0.753c2.688,0,5.235-0.616,7.637-1.846c2.403-1.229,4.534-2.989,6.393-5.277
		c1.859-2.288,3.397-5.063,4.614-8.324c1.215-3.261,1.995-6.922,2.338-10.983c2.648-0.445,5.114-1.144,7.416-2.069l-10.636,50.124
		l13.259-3.175l4.548-21.41c0.257,0.401,0.58,0.794,0.967,1.179c0.385,0.388,0.871,0.723,1.458,1.009
		c0.586,0.286,1.294,0.515,2.124,0.687c0.828,0.172,1.802,0.258,2.917,0.258c2.831,0,5.344-0.494,7.53-1.48
		c2.189-0.987,4.083-2.296,5.686-3.926c1.602-1.631,2.94-3.511,4.012-5.644c1.073-2.13,1.938-4.347,2.596-6.649
		c0.657-2.303,1.123-4.604,1.396-6.908c0.271-2.302,0.406-4.441,0.406-6.414c0-2.603-0.278-4.791-0.835-6.565
		C472.026,48.868,471.268,47.445,470.31,46.373z M353.217,59.245c0.729-2.16,1.566-4.098,2.51-5.814
		c0.944-1.716,1.952-3.11,3.025-4.183c1.072-1.073,2.167-1.609,3.282-1.609c0.83,0,1.401,0.329,1.716,0.987
		c0.314,0.659,0.472,1.531,0.472,2.618c0,1.831-0.351,3.597-1.051,5.299c-0.701,1.702-1.638,3.218-2.811,4.548
		c-1.173,1.329-2.531,2.409-4.076,3.239c-1.545,0.831-3.147,1.302-4.806,1.416C351.909,63.571,352.488,61.404,353.217,59.245z
		 M420.839,55.168c-0.501,0.787-0.751,1.796-0.751,3.025c0,0.887,0.165,1.667,0.494,2.338c0.329,0.672,0.951,1.123,1.866,1.352
		c-0.343,2.574-0.865,4.977-1.566,7.208c-0.701,2.231-1.509,4.162-2.424,5.792c-0.916,1.632-1.91,2.918-2.982,3.862
		s-2.139,1.415-3.196,1.415c-0.831,0-1.531-0.1-2.103-0.3c-0.573-0.198-1.037-0.564-1.395-1.094
		c-0.358-0.53-0.616-1.251-0.772-2.167c-0.157-0.915-0.236-2.103-0.236-3.561c0-1.46,0.144-3.082,0.429-4.871
		c0.286-1.786,0.687-3.597,1.202-5.427c0.515-1.831,1.137-3.611,1.866-5.342c0.73-1.73,1.53-3.268,2.403-4.613
		c0.872-1.344,1.794-2.424,2.767-3.239c0.972-0.815,1.988-1.223,3.046-1.223c0.601,0,1.094,0.085,1.48,0.257
		c0.386,0.171,0.708,0.465,0.965,0.879c0.257,0.415,0.458,0.944,0.601,1.587c0.143,0.644,0.243,1.438,0.301,2.381
		C422.003,53.803,421.338,54.382,420.839,55.168z M461.128,61.562c-0.187,1.703-0.479,3.427-0.879,5.171
		c-0.401,1.745-0.916,3.446-1.545,5.105c-0.63,1.659-1.401,3.139-2.316,4.441c-0.917,1.302-1.975,2.346-3.177,3.131
		c-1.201,0.788-2.573,1.181-4.118,1.181c-1.001,0-1.768-0.214-2.296-0.644c-0.53-0.429-0.879-0.886-1.051-1.373l5.19-24.585
		c0.829-1.431,1.795-2.51,2.896-3.239c1.101-0.73,2.153-1.095,3.154-1.095c0.4,0,0.858,0.065,1.373,0.193
		c0.516,0.129,0.993,0.436,1.438,0.922c0.442,0.487,0.821,1.216,1.137,2.188c0.313,0.973,0.471,2.302,0.471,3.991
		C461.406,58.322,461.312,59.86,461.128,61.562z"/>
	<path d="M541.964,54.718c0.528-0.601,0.923-1.28,1.181-2.038s0.385-1.523,0.385-2.295c0-0.858-0.127-1.688-0.385-2.489
		c-0.258-0.8-0.645-1.502-1.159-2.103s-1.152-1.087-1.909-1.459c-0.76-0.371-1.639-0.558-2.639-0.558
		c-1.059,0-2.061,0.157-3.005,0.472c-0.943,0.315-1.851,0.723-2.723,1.223c-0.873,0.5-1.71,1.08-2.511,1.738
		c-0.802,0.658-1.588,1.441-2.359,2.128L527.955,44h-12.658l-5.976,28.092c-1.111,1.226-2.217,2.322-3.313,3.405
		c-1.102,1.088-2.268,2.004-3.497,2.806c-1.23,0.8-2.552,1.415-3.969,1.872c-1.415,0.458-2.996,0.68-4.741,0.68
		c-1.058,0-1.98-0.108-2.766-0.324c-0.788-0.214-1.446-0.596-1.975-1.139c-0.53-0.544-0.931-1.295-1.201-2.253
		c-0.272-0.959-0.408-2.183-0.408-3.671c0-0.515,0.021-1.065,0.064-1.65c0.043-0.587,0.092-1.209,0.149-1.867
		c2.631-0.172,5.164-0.757,7.596-1.76c2.432-1.001,4.582-2.316,6.457-3.947c1.872-1.63,3.367-3.539,4.482-5.728
		c1.116-2.188,1.675-4.555,1.675-7.101c0-1.087-0.138-2.138-0.408-3.153c-0.272-1.015-0.772-1.91-1.501-2.682
		c-0.729-0.772-1.716-1.395-2.961-1.867c-1.243-0.472-2.853-0.708-4.827-0.708c-3.003,0-5.679,0.536-8.024,1.609
		c-2.346,1.073-4.39,2.488-6.135,4.248s-3.232,3.754-4.462,5.986c-1.23,2.231-2.218,4.505-2.962,6.822
		c-0.743,2.317-1.286,4.577-1.63,6.78c-0.344,2.202-0.515,4.146-0.515,5.835c0,2.488,0.322,4.611,0.966,6.371
		c0.644,1.759,1.565,3.197,2.768,4.312c1.201,1.115,2.645,1.938,4.333,2.467c1.687,0.528,3.575,0.794,5.663,0.794
		c2.89,0,5.542-0.466,7.96-1.394c2.415-0.931,4.618-2.154,6.607-3.669c1.955-1.492,3.716-3.049,5.284-4.957L505.987,88h12.656
		l7.036-33.525c1.088-1.001,2.088-1.88,3.005-2.496c0.915-0.615,2.045-0.959,3.39-0.959c0.429,0,0.736,0.126,0.923,0.412
		c0.185,0.287,0.336,0.635,0.45,1.064s0.222,0.89,0.322,1.39c0.1,0.5,0.264,0.963,0.492,1.392s0.564,0.786,1.009,1.071
		c0.442,0.286,1.079,0.429,1.909,0.429c1.058,0,1.988-0.193,2.789-0.58C540.771,55.813,541.435,55.319,541.964,54.718z
		 M490.091,59.245c0.728-2.16,1.565-4.098,2.509-5.814c0.944-1.716,1.954-3.11,3.025-4.183c1.073-1.073,2.166-1.609,3.281-1.609
		c0.83,0,1.401,0.329,1.716,0.987c0.315,0.659,0.474,1.531,0.474,2.618c0,1.831-0.351,3.597-1.051,5.299
		c-0.702,1.702-1.638,3.218-2.811,4.548c-1.173,1.329-2.533,2.409-4.077,3.239c-1.545,0.831-3.146,1.302-4.806,1.416
		C488.781,63.571,489.36,61.404,490.091,59.245z"/>
	<path d="M573.114,74.192c-1.046,0.73-2.21,1.458-3.498,2.202c0.144-0.486,0.237-1.006,0.281-1.549
		c0.041-0.544,0.062-1.147,0.062-1.804c0-0.974-0.021-1.91-0.062-2.812c-0.044-0.899-0.117-1.901-0.216-3.003
		c-0.102-1.102-0.207-2.368-0.322-3.798c-0.114-1.431-0.242-3.168-0.385-5.214c-0.144-2.044-0.294-4.462-0.451-7.251
		c-0.158-2.789-0.322-6.085-0.493-9.89l-13.002,1.716c-1.373,4.348-2.901,8.674-4.59,12.979c-1.688,4.306-3.763,8.661-6.223,13.066
		c-0.601,0.285-1.178,0.68-1.737,1.18c-0.557,0.5-1.051,1.094-1.479,1.78c-0.429,0.688-0.78,1.466-1.051,2.339
		c-0.273,0.873-0.407,1.823-0.407,2.853c0,1.345,0.249,2.682,0.751,4.013c0.499,1.329,1.279,2.531,2.337,3.604
		c1.059,1.071,2.396,1.945,4.013,2.616c1.615,0.673,3.524,1.009,5.727,1.009c1.115,0,2.296-0.094,3.541-0.278
		c1.243-0.188,2.474-0.486,3.69-0.902c1.215-0.414,2.388-0.958,3.518-1.631c1.13-0.671,2.152-1.493,3.067-2.467
		c2.06-1.2,4.241-2.649,6.544-4.382c2.302-1.729,4.599-3.568,6.887-6.568h-3.689C575.096,73,574.157,73.464,573.114,74.192z
		 M556.573,76.986c-0.429,1.03-1.001,1.867-1.717,2.511c-0.715,0.644-1.529,1.102-2.444,1.372c-0.915,0.272-1.858,0.408-2.832,0.408
		c-1.944,0-3.325-0.507-4.14-1.523c-0.815-1.015-1.225-2.552-1.225-4.612c0.229,0.488,0.56,0.801,0.988,0.944
		s0.887,0.214,1.373,0.214c0.601,0,1.136-0.121,1.609-0.364c0.472-0.242,0.879-0.571,1.222-0.987
		c0.344-0.414,0.601-0.879,0.772-1.394s0.258-1.044,0.258-1.588c0-0.744-0.192-1.358-0.579-1.845
		c-0.386-0.487-0.866-0.887-1.438-1.202c1.459-2.831,2.79-5.592,3.991-8.281c1.201-2.688,2.244-5.463,3.131-8.324
		c0.172,2.259,0.33,4.233,0.474,5.921c0.144,1.688,0.278,3.175,0.408,4.463c0.128,1.287,0.241,2.416,0.343,3.39
		c0.1,0.973,0.178,1.852,0.234,2.639c0.058,0.787,0.109,1.529,0.15,2.231c0.045,0.701,0.065,1.423,0.065,2.166
		C557.218,74.67,557.002,75.957,556.573,76.986z"/>
	<path d="M652.986,23l-19.353,46.323l2.018-46.284c-2.231-0.829-4.449-1.238-6.651-1.238c-2.231,0-4.471,0.319-6.715,0.947
		c-2.246,0.629-4.405,1.504-6.479,2.62c-2.073,1.115-4.011,2.424-5.813,3.926c-1.802,1.502-3.368,3.118-4.699,4.849
		c-1.328,1.731-2.374,3.54-3.131,5.428c-0.759,1.888-1.139,3.762-1.139,5.621c0,1.459,0.222,2.696,0.666,3.711
		c0.442,1.015,1.073,1.838,1.888,2.467c0.816,0.629,1.803,1.087,2.962,1.373c1.157,0.286,2.452,0.429,3.883,0.429
		c0-0.2-0.065-0.407-0.192-0.622c-0.131-0.214-0.266-0.529-0.409-0.944c-0.144-0.414-0.278-0.972-0.407-1.674
		c-0.129-0.701-0.193-1.637-0.193-2.81c0-5.063,1.23-9.261,3.69-12.593c2.46-3.332,5.878-5.585,10.253-7.044L600.854,88h7.036
		l14.674-39.646L620.806,88h12.056l16.52-39.475L643.76,88h12.658l9.225-65H652.986z"/>
	<path d="M837.508,50.642c-0.559-1.774-1.317-3.197-2.275-4.269c-0.959-1.073-2.096-1.845-3.411-2.317
		c-1.315-0.472-2.718-0.708-4.204-0.708c-2.231,0-4.177,0.358-5.836,1.073c-1.659,0.715-3.131,1.858-4.419,2.945L818.777,41h-12.656
		l-6.673,31h-0.021c-0.314,1-0.701,2.136-1.159,3.094c-0.458,0.959-0.986,1.773-1.587,2.459c-0.602,0.686-1.266,1.219-1.994,1.604
		c-0.731,0.387-1.524,0.577-2.383,0.577c-1.229,0-2.139-0.236-2.725-0.708c-0.587-0.474-0.879-1.324-0.879-2.554
		c0-0.457,0.028-0.924,0.086-1.396c0.057-0.472,0.156-0.84,0.3-1.326L795.395,44h-12.659l-5.963,28.078
		c-0.343,1.115-0.737,2.097-1.181,3.055c-0.443,0.959-0.959,1.754-1.544,2.439c-0.588,0.687-1.237,1.209-1.952,1.595
		c-0.716,0.387-1.501,0.572-2.359,0.572c-1.002,0-1.688-0.353-2.06-1.054c-0.372-0.701-0.559-1.554-0.559-2.556
		c0-0.743,0.086-1.463,0.257-2.378L773.684,44h-12.658L755,72.078v-0.056c0,1.115-0.756,2.125-1.299,3.083
		c-0.544,0.959-1.145,1.767-1.832,2.452c-0.686,0.687-1.428,1.217-2.244,1.603c-0.814,0.387-1.647,0.576-2.506,0.576
		c-1.229,0-2.129-0.237-2.702-0.709c-0.571-0.474-0.857-1.325-0.857-2.555c0-0.457,0.024-0.924,0.065-1.396
		c0.045-0.472,0.137-1.099,0.279-1.585L749.525,47h5.277l0.687-3h-5.277l3.005-14.014l-13.003,1.815L737.554,44h-2.873l-0.73,3
		h2.917l-5.276,24.819c-1.115,1.23-2.226,2.462-3.325,3.548c-1.103,1.088-2.268,2.068-3.498,2.87
		c-1.229,0.8-2.552,1.448-3.969,1.905c-1.414,0.458-2.995,0.696-4.74,0.696c-1.059,0-1.981-0.102-2.768-0.317
		c-0.787-0.214-1.445-0.591-1.973-1.134c-0.53-0.544-0.931-1.293-1.202-2.251c-0.272-0.959-0.407-2.182-0.407-3.67
		c0-0.515,0.021-1.064,0.064-1.649c0.042-0.587,0.092-1.209,0.148-1.867c2.632-0.172,5.165-0.757,7.596-1.76
		c2.432-1.001,4.583-2.316,6.457-3.947c1.872-1.63,3.368-3.539,4.483-5.728c1.115-2.188,1.675-4.555,1.675-7.101
		c0-1.087-0.138-2.138-0.409-3.153c-0.272-1.015-0.771-1.91-1.5-2.682c-0.73-0.772-1.717-1.395-2.962-1.867
		c-1.243-0.472-2.853-0.708-4.826-0.708c-3.004,0-5.679,0.536-8.025,1.609c-2.345,1.073-4.39,2.488-6.135,4.248
		c-1.744,1.759-3.231,3.754-4.462,5.986c-1.229,2.231-2.218,4.505-2.961,6.822c-0.744,2.317-1.287,4.577-1.63,6.78
		c-0.271,1.74-0.432,3.313-0.488,4.733c-0.734,0.78-1.467,1.541-2.194,2.259c-1.102,1.088-2.268,2.031-3.497,2.833
		c-1.23,0.8-2.551,1.43-3.968,1.887c-1.415,0.458-2.996,0.687-4.741,0.687c-1.059,0-1.981-0.105-2.767-0.321
		c-0.788-0.214-1.446-0.594-1.974-1.137c-0.531-0.544-0.932-1.294-1.201-2.252c-0.273-0.959-0.409-2.182-0.409-3.67
		c0-0.515,0.021-1.065,0.065-1.65c0.042-0.587,0.091-1.209,0.149-1.867c2.631-0.172,5.163-0.757,7.595-1.76
		c2.432-1.001,4.582-2.316,6.457-3.947c1.872-1.63,3.367-3.539,4.482-5.728c1.116-2.188,1.675-4.555,1.675-7.101
		c0-1.087-0.138-2.138-0.407-3.153c-0.273-1.015-0.773-1.91-1.502-2.682c-0.729-0.772-1.716-1.395-2.961-1.867
		c-1.243-0.472-2.853-0.708-4.826-0.708c-3.004,0-5.68,0.536-8.024,1.609c-2.347,1.073-4.39,2.488-6.135,4.248
		s-3.233,3.754-4.463,5.986c-1.229,2.231-2.218,4.505-2.962,6.822c-0.743,2.317-1.287,4.577-1.63,6.78
		c-0.343,2.202-0.515,4.146-0.515,5.835c0,2.488,0.322,4.611,0.967,6.371c0.643,1.759,1.564,3.197,2.767,4.312
		c1.201,1.115,2.645,1.938,4.333,2.467c1.688,0.528,3.575,0.794,5.663,0.794c2.89,0,5.542-0.466,7.96-1.394
		c2.416-0.931,4.618-2.154,6.608-3.669c1.986-1.517,3.774-3.246,5.363-5.192c0.1-0.122,0.192-0.246,0.29-0.368
		c0.161,1.113,0.404,2.134,0.74,3.05c0.643,1.759,1.565,3.197,2.767,4.312c1.202,1.115,2.646,1.938,4.333,2.467
		c1.688,0.528,3.575,0.794,5.663,0.794c2.89,0,5.542-0.466,7.961-1.394c2.415-0.931,4.618-2.154,6.606-3.669
		c1.988-1.517,3.776-3.246,5.365-5.192c0.188-0.231,0.366-0.466,0.55-0.699c-0.003,0.146-0.015,0.302-0.015,0.441
		c0,1.86,0.243,3.447,0.729,4.764c0.486,1.315,1.152,2.401,1.997,3.26c0.842,0.858,1.836,1.488,2.98,1.889
		c1.144,0.399,2.374,0.601,3.69,0.601c0.771,0,1.652-0.072,2.639-0.215c0.987-0.144,2.022-0.415,3.11-0.814
		c1.087-0.401,2.21-0.974,3.37-1.717c1.156-0.743,2.286-1.717,3.388-2.918c0.6-0.654,1.186-1.396,1.76-2.212
		c0.121,0.773,0.299,1.483,0.536,2.127c0.486,1.315,1.152,2.401,1.997,3.26c0.843,0.858,1.836,1.488,2.98,1.889
		c1.144,0.399,2.374,0.601,3.69,0.601c0.915,0,1.903-0.094,2.961-0.278c1.059-0.188,2.146-0.58,3.261-1.181
		c1.116-0.601,2.245-1.443,3.39-2.531c1.144-1.087,2.274-2.532,3.39-4.334c0.315,2.775,1.215,4.855,2.703,6.244
		c1.487,1.387,3.489,2.08,6.007,2.08c0.771,0,1.63-0.072,2.574-0.215c0.943-0.144,1.932-0.415,2.962-0.814
		c1.029-0.401,2.088-0.974,3.175-1.717c1.002-0.686,1.984-1.576,2.95-2.65l-5.696,26.85l13.257-3.175l4.549-21.41
		c0.257,0.401,0.579,0.794,0.966,1.179c0.386,0.388,0.872,0.723,1.46,1.009c0.585,0.286,1.292,0.515,2.122,0.687
		c0.829,0.172,1.802,0.258,2.917,0.258c2.833,0,5.344-0.494,7.531-1.48c2.188-0.987,4.083-2.296,5.685-3.926
		c1.602-1.631,2.94-3.511,4.013-5.644c1.073-2.13,1.937-4.347,2.595-6.649s1.123-4.604,1.396-6.908
		c0.271-2.302,0.406-4.441,0.406-6.414C838.344,54.604,838.064,52.416,837.508,50.642z M712.348,59.245
		c0.729-2.16,1.565-4.098,2.51-5.814c0.944-1.716,1.953-3.11,3.024-4.183c1.074-1.073,2.166-1.609,3.281-1.609
		c0.83,0,1.401,0.329,1.717,0.987c0.314,0.659,0.474,1.531,0.474,2.618c0,1.831-0.352,3.597-1.051,5.299
		c-0.702,1.702-1.639,3.218-2.812,4.548c-1.173,1.329-2.532,2.409-4.076,3.239c-1.545,0.831-3.147,1.302-4.807,1.416
		C711.038,63.571,711.617,61.404,712.348,59.245z M678.623,59.245c0.729-2.16,1.565-4.098,2.51-5.814
		c0.943-1.716,1.953-3.11,3.024-4.183c1.073-1.073,2.166-1.609,3.282-1.609c0.828,0,1.401,0.329,1.717,0.987
		c0.313,0.659,0.472,1.531,0.472,2.618c0,1.831-0.351,3.597-1.051,5.299c-0.702,1.702-1.638,3.218-2.811,4.548
		c-1.172,1.329-2.532,2.409-4.077,3.239c-1.545,0.831-3.146,1.302-4.806,1.416C677.313,63.571,677.893,61.404,678.623,59.245z
		 M826.051,61.562c-0.187,1.703-0.479,3.427-0.879,5.171c-0.401,1.745-0.915,3.446-1.545,5.105
		c-0.629,1.659-1.401,3.139-2.316,4.441c-0.916,1.302-1.975,2.346-3.175,3.131c-1.202,0.788-2.575,1.181-4.12,1.181
		c-1.001,0-1.768-0.214-2.296-0.644c-0.529-0.429-0.879-0.886-1.05-1.373l5.19-24.585c0.829-1.431,1.794-2.51,2.896-3.239
		c1.1-0.73,2.152-1.095,3.154-1.095c0.399,0,0.858,0.065,1.373,0.193c0.515,0.129,0.993,0.436,1.438,0.922
		c0.442,0.487,0.822,1.216,1.137,2.188c0.314,0.973,0.471,2.302,0.471,3.991C826.329,58.322,826.236,59.86,826.051,61.562z"/>
</g>
</svg>
